<svg width="250" height="98" viewBox="0 0 250 98" fill="none" xmlns="http://www.w3.org/2000/svg">
<path d="M133.816 33.7134C138.507 33.1616 144.438 35.6412 145.06 40.7847C145.165 41.653 145.089 42.4432 144.953 43.2954L127.606 43.3032C129.119 48.5111 135.105 49.1559 139.466 47.1938C141.232 46.1426 142.296 45.9514 144.295 46.3755C144.161 46.567 144.02 46.7536 143.872 46.9341C140.13 51.559 132.103 52.0537 127.51 48.4302C124.065 45.7117 123.481 40.6349 126.299 37.2505C128.221 34.9401 130.916 33.9895 133.816 33.7134ZM141.704 40.0591C140.895 37.1551 136.903 35.7906 134.133 36.2524C131.029 36.5652 128.439 38.0477 127.637 41.2153L135.642 41.2124C137.722 41.2111 139.844 41.2323 141.921 41.2065C141.866 40.8251 141.807 40.4309 141.704 40.0591Z" fill="#FEFEFE"/>
<path d="M187.978 33.7158C189.266 33.608 190.564 33.6762 191.833 33.9189C196.51 34.8285 200.106 38.3037 199.097 43.3008L181.777 43.3047C183.076 48.4737 189.483 49.1617 193.676 47.167C195.436 46.145 196.491 45.9542 198.476 46.3779C198.318 46.5928 198.155 46.8041 197.988 47.0117C192.984 53.1941 179.592 51.7815 178.721 43.0527C178.505 40.9677 179.134 38.883 180.466 37.2607C182.369 34.9523 185.096 33.9943 187.978 33.7158ZM196.081 41.209C195.628 37.3444 191.83 35.8191 188.323 36.252L188.297 36.2559C184.997 36.6031 182.808 37.9987 181.806 41.209L189.688 41.2139L196.081 41.209Z" fill="#FEFEFE"/>
<path d="M60.8696 25.6198C65.784 25.285 71.5056 27.2994 72.1854 32.8348C71.3063 32.9513 69.8824 33.0018 68.9586 33.0647C68.298 29.4378 64.366 28.4517 61.124 28.6058C58.8619 28.7133 55.1873 29.6598 55.3065 32.571C55.419 34.2041 56.8997 35.2767 58.3283 35.7383C62.3377 37.0338 67.3443 36.1635 70.7479 39.1751C71.89 40.1764 72.5806 41.5921 72.6651 43.1049C72.8269 46.0918 70.4963 48.3748 67.964 49.5551C66.1117 50.4185 64.3056 50.7302 62.2834 50.8199C57.2465 50.9151 51.624 48.8772 50.8098 43.2591C53.3632 43.2804 54.1106 44.3509 55.7875 45.8803C57.8391 47.5893 60.3988 47.8614 62.9429 47.7692C65.3063 47.6836 69.8206 46.1517 69.4657 43.168C68.9786 39.0721 62.1409 39.308 58.9495 38.7047C53.8137 37.7337 49.8398 33.7582 53.4752 28.7437C54.9621 26.7094 58.2885 25.8213 60.8696 25.6198Z" fill="#FEFEFE"/>
<path d="M156.215 33.7102C159.16 33.3098 161.603 34.5138 163.038 37.0748C164.347 34.7077 166.233 33.7077 168.886 33.6715C173.211 33.6123 175.689 36.4308 175.462 40.643C175.42 41.4204 175.46 42.4603 175.46 43.2638L175.459 50.0945C170.936 49.6452 172.22 45.1422 172.056 41.9538C172.005 40.9614 172.161 39.9018 171.907 38.9239C171.761 38.3475 171.466 37.8191 171.051 37.3907C169.416 35.711 166.377 35.7981 164.713 37.4203C163.363 38.7375 163.538 40.3395 163.544 42.0663L163.554 45.072L163.557 50.091C157.216 49.491 162.153 40.4504 159.099 37.3117C157.042 35.1988 152.415 36.1535 151.825 39.2121C151.584 40.4642 151.676 42.1129 151.677 43.4124L151.688 50.0983C147.508 49.5737 148.246 45.9558 148.249 42.7838L148.255 34.3995L151.237 34.4023L151.228 36.8951C152.403 34.8855 153.925 34.0091 156.215 33.7102Z" fill="#FEFEFE"/>
<path d="M101.535 33.7111C104.247 33.3998 107.317 34.1372 109.619 35.5773L109.617 38.1677C107.649 37.0258 105.946 36.5659 103.632 36.419C102.291 36.3337 98.7348 36.6902 98.7857 38.7034C98.848 41.1717 103.971 40.9044 105.905 41.1812C109.982 41.7649 112.14 45.4453 109.277 48.7649C107.899 50.3566 105.03 50.8243 102.815 50.8164C99.5805 50.7458 96.9176 49.9691 94.2761 48.134C95.6421 45.8181 96.9662 46.828 99.0481 47.4325C101.465 48.1345 105.433 48.5835 107.344 46.5792C107.605 46.3056 107.774 45.7113 107.701 45.3224C107.47 44.0955 105.772 43.7102 104.734 43.5347C102.223 43.2683 99.5746 43.4073 97.447 41.7937C95.5555 40.3593 95.2586 37.8441 96.7466 36.0067C97.9888 34.4728 99.6499 33.9329 101.535 33.7111Z" fill="#FEFEFE"/>
<path d="M72.98 34.4037L76.5522 34.4014C79.0852 38.2418 81.6258 42.1776 84.2097 45.9768L91.2479 34.4031L94.808 34.4054C93.0909 37.3654 91.2709 40.349 89.5169 43.294L84.992 50.8924C84.682 51.4126 84.3352 51.9864 84.0316 52.5061C82.2903 55.486 82.1608 56.0935 78.6259 56.0636C79.7305 53.9823 81.3494 51.3836 82.5642 49.3061C79.5909 44.3829 76.037 39.3487 72.98 34.4037Z" fill="#FEFEFE"/>
<path d="M106.703 57.8403C110.021 57.4055 114.306 59.2182 114.945 62.7729C115.077 63.5098 115.03 64.0491 114.931 64.7837L100.949 64.7866C101.767 69.346 106.768 70.3274 110.614 69.0093C111.805 68.4895 112.569 67.9868 113.361 66.9614L114.547 67.3481C114.468 67.4619 114.384 67.5729 114.296 67.6802C110.273 72.6013 100.24 71.4391 99.6655 64.8188C99.5158 63.2315 100.015 61.6504 101.05 60.4341C102.492 58.7356 104.537 58.0249 106.703 57.8403ZM113.708 63.8257C113.437 60.1793 110.317 58.6936 106.944 58.9517C103.931 59.2605 101.465 60.642 100.958 63.8394H107.901C109.748 63.8407 111.883 63.8947 113.708 63.8257Z" fill="#FEFEFE"/>
<path d="M128.875 57.8433C129.449 57.7418 130.709 57.834 131.261 57.9204C134.897 58.4905 137.69 60.951 137.097 64.7856L123.124 64.7896C123.19 65.1389 123.279 65.4835 123.392 65.8208C124.663 69.5809 129.479 70.1551 132.789 69.0093C134.016 68.4907 134.713 67.9764 135.543 66.9644L136.721 67.3491C133.042 72.6692 122.414 71.5769 121.837 64.8198C121.689 63.2261 122.193 61.6398 123.236 60.4214C124.66 58.7516 126.733 58.0098 128.875 57.8433ZM135.596 62.2671C134.762 59.8106 131.538 58.6373 129.115 58.9536C125.954 59.2761 123.782 60.6112 123.121 63.8403L130.062 63.8413C131.906 63.8426 134.053 63.8966 135.873 63.8267C135.835 63.2223 135.791 62.8422 135.596 62.2671Z" fill="#FEFEFE"/>
<path d="M119.221 27.7597L119.347 27.7554C119.492 27.9171 119.436 32.8739 119.436 33.5177L124.12 33.5154V36.0105L119.432 36.027L119.424 51.2854C118.473 51.13 118.037 50.9802 117.261 50.427C115.578 48.8893 116.035 46.3962 116.037 44.2786L116.038 36.0286C114.626 35.9708 112.885 36.0172 111.448 36.0168L111.45 33.5162L116.038 33.5144L116.036 28.2023C117.096 28.0419 118.157 27.8943 119.221 27.7597Z" fill="#FEFEFE"/>
<path d="M133.295 24.9589L136.251 24.9585C137.895 27.2283 139.488 29.5635 141.132 31.8435C137.651 31.9183 137.132 31.3471 135.348 28.4845L134.711 27.4685L131.994 31.8488L128.288 31.8479C129.861 29.8717 131.775 27.0562 133.295 24.9589Z" fill="#FEFEFE"/>
<path d="M194.298 57.8403C195.962 57.6561 197.605 58.0516 199.134 58.6757L199.125 59.9101C197.553 59.1017 195.767 58.8041 194.017 59.0591C185.585 60.2324 187.364 70.8337 196.8 69.4116C197.76 69.1784 198.255 68.9422 199.129 68.5238L199.131 69.7961C198.142 70.2675 197.079 70.5662 195.988 70.6794C192.121 71.0772 187.656 69.0972 187.243 64.8419C187.089 63.266 187.575 61.6942 188.594 60.4782C190.038 58.7525 192.113 58.0311 194.298 57.8403Z" fill="#FEFEFE"/>
<path d="M147.051 57.8422C148.729 57.6676 150.333 58.0352 151.873 58.6723L151.87 59.9051C148.841 58.4856 144.583 58.5544 142.365 61.3536C141.588 62.3263 141.231 63.566 141.371 64.8009C141.826 68.5447 145.975 69.8779 149.267 69.4605C150.305 69.2812 150.95 68.9814 151.867 68.5281L151.877 69.802C147.576 71.9721 140.462 70.2682 139.999 64.8153C139.852 63.235 140.348 61.6623 141.376 60.4487C142.816 58.7485 144.884 58.0298 147.051 57.8422Z" fill="#FEFEFE"/>
<path d="M160.798 53.4849L160.879 53.5338C160.955 53.8766 160.915 57.3816 160.913 57.9657L165.622 57.9672L165.62 59.061L160.908 59.0695L160.909 70.1774L159.815 70.1828C159.715 70.1837 159.619 70.1618 159.52 70.1448C159.394 69.8901 159.457 60.1936 159.458 59.0679L154.727 59.0664L154.725 57.9664L159.458 57.9655L159.458 53.6374C159.904 53.5796 160.351 53.5288 160.798 53.4849Z" fill="#FEFEFE"/>
<path d="M173.817 57.8321C175.426 57.7292 176.495 58.0855 177.811 58.9841L177.209 60.1919C176.383 59.5691 175.063 59.109 174.026 59.1332C168.87 59.2539 169.75 65.7031 169.761 69.1986V70.1813L168.303 70.1814L168.304 58.3607L169.632 58.3618V61.171C170.601 59.2105 171.55 58.1395 173.817 57.8321Z" fill="#FEFEFE"/>
<path d="M117.614 52.2612H119.112L119.111 70.1289L117.619 70.1343C117.507 64.3081 117.614 58.1174 117.614 52.2612Z" fill="#FEFEFE"/>
<path d="M180.8 58.3619L182.23 58.3613L182.228 70.1786L180.801 70.1835L180.8 58.3619Z" fill="#FEFEFE"/>
<path d="M181.275 54.4898C181.589 54.4064 181.923 54.5006 182.146 54.7352C182.368 54.9698 182.444 55.3071 182.343 55.6139C182.242 55.9206 181.98 56.1475 181.661 56.2049C181.195 56.2888 180.745 55.9917 180.642 55.5314C180.538 55.0713 180.818 54.6117 181.275 54.4898Z" fill="#FEFEFE"/>
</svg>
