<svg width="250" height="98" viewBox="0 0 250 98" fill="none" xmlns="http://www.w3.org/2000/svg">
<g clip-path="url(#clip0_231_111746)">
<path d="M124.2 59.1256C124.052 59.085 121.768 58.4961 119.341 58.4961C114.746 58.4961 111.98 60.9771 111.98 64.6719C111.98 67.9424 114.294 69.5735 117.072 70.4508C117.38 70.5524 117.833 70.6945 118.135 70.7945C119.372 71.1835 120.358 71.7614 120.358 72.7624C120.358 73.8819 119.218 74.6066 116.738 74.6066C114.56 74.6066 112.471 73.9835 112.031 73.8724V78.4182C112.276 78.4703 114.758 78.9577 117.411 78.9577C121.225 78.9577 125.589 77.2908 125.589 72.3287C125.589 69.9219 124.115 67.7061 120.88 66.6777L119.505 66.2398C118.684 65.9808 117.22 65.5614 117.22 64.3587C117.22 63.4087 118.305 62.7398 120.303 62.7398C122.027 62.7398 124.126 63.3193 124.2 63.3424V59.1256ZM166.327 68.7271C166.327 71.6014 164.125 73.9266 161.171 73.9266C158.214 73.9266 156.018 71.6014 156.018 68.7271C156.018 65.8587 158.214 63.5324 161.171 63.5324C164.125 63.5324 166.327 65.8587 166.327 68.7271ZM161.171 58.5024C155.095 58.5024 150.738 63.085 150.738 68.7271C150.738 74.3782 155.095 78.9577 161.171 78.9577C167.246 78.9577 171.61 74.3782 171.61 68.7271C171.61 63.085 167.246 58.5024 161.171 58.5024ZM105.295 78.6061H100.31V58.8524H105.295" fill="white"/>
<path d="M93.458 59.2098C92.9896 59.0709 91.258 58.502 88.9128 58.502C82.8465 58.502 78.3933 62.8272 78.3933 68.7267C78.3933 75.0914 83.3091 78.9572 88.9128 78.9572C91.1391 78.9572 92.8386 78.4298 93.458 78.2541V72.9514C93.2438 73.0704 91.6144 73.9998 89.2702 73.9998C85.9491 73.9998 83.807 71.6625 83.807 68.7267C83.807 65.7014 86.0417 63.4577 89.2702 63.4577C91.6544 63.4577 93.2575 64.4077 93.458 64.5125" fill="white"/>
<path d="M145.49 59.2098C145.021 59.0709 143.29 58.502 140.944 58.502C134.878 58.502 130.425 62.8272 130.425 68.7267C130.425 75.0914 135.341 78.9572 140.944 78.9572C143.171 78.9572 144.87 78.4298 145.49 78.2541V72.9514C145.275 73.0704 143.646 73.9998 141.302 73.9998C137.981 73.9998 135.838 71.6625 135.838 68.7267C135.838 65.7014 138.073 63.4577 141.302 63.4577C143.686 63.4577 145.289 64.4077 145.49 64.5125" fill="white"/>
<path d="M100.295 21.5044C100.295 20.1428 99.1832 19.0386 97.8201 19.0386C96.4574 19.0386 95.3453 20.1428 95.3453 21.5044V47.7359C95.3453 49.1054 96.4574 50.2091 97.8201 50.2091C99.1832 50.2091 100.295 49.1054 100.295 47.7359V21.5044ZM86.7011 30.8159C86.7011 29.4549 85.5895 28.3491 84.2264 28.3491C82.8632 28.3491 81.7516 29.4549 81.7516 30.8159V42.808C81.7516 44.177 82.8632 45.2812 84.2264 45.2812C85.5895 45.2812 86.7011 44.177 86.7011 42.808V30.8159ZM73.1074 37.6223C73.1074 36.2607 71.9959 35.157 70.6327 35.157C69.2711 35.157 68.158 36.2607 68.158 37.6223V42.808C68.158 44.177 69.2711 45.2812 70.6327 45.2812C71.9959 45.2812 73.1074 44.177 73.1074 42.808" fill="white"/>
<path d="M95.3453 21.5044C95.3453 20.1428 96.4574 19.0386 97.8206 19.0386C99.1832 19.0386 100.295 20.1428 100.295 21.5044V47.7359C100.295 49.1054 99.1832 50.2091 97.8206 50.2091C96.4574 50.2091 95.3453 49.1054 95.3453 47.7359V21.5044ZM108.94 30.8159C108.94 29.4549 110.051 28.3491 111.414 28.3491C112.777 28.3491 113.889 29.4549 113.889 30.8159V42.808C113.889 44.177 112.777 45.2812 111.414 45.2812C110.051 45.2812 108.94 44.177 108.94 42.808V30.8159ZM122.533 37.6223C122.533 36.2607 123.645 35.157 125.008 35.157C126.37 35.157 127.483 36.2607 127.483 37.6223V42.808C127.483 44.177 126.37 45.2812 125.008 45.2812C123.645 45.2812 122.533 44.177 122.533 42.808" fill="white"/>
<path d="M149.705 21.5044C149.705 20.1428 150.817 19.0386 152.18 19.0386C153.543 19.0386 154.655 20.1428 154.655 21.5044V47.7359C154.655 49.1054 153.543 50.2091 152.18 50.2091C150.817 50.2091 149.705 49.1054 149.705 47.7359V21.5044ZM163.299 30.8159C163.299 29.4549 164.41 28.3491 165.774 28.3491C167.137 28.3491 168.248 29.4549 168.248 30.8159V42.808C168.248 44.177 167.137 45.2812 165.774 45.2812C164.41 45.2812 163.299 44.177 163.299 42.808V30.8159ZM176.893 37.6223C176.893 36.2607 178.004 35.157 179.367 35.157C180.729 35.157 181.842 36.2607 181.842 37.6223V42.808C181.842 44.177 180.729 45.2812 179.367 45.2812C178.004 45.2812 176.893 44.177 176.893 42.808" fill="white"/>
<path d="M154.655 21.5044C154.655 20.1428 153.543 19.0386 152.179 19.0386C150.817 19.0386 149.705 20.1428 149.705 21.5044V47.7359C149.705 49.1054 150.817 50.2091 152.179 50.2091C153.543 50.2091 154.655 49.1054 154.655 47.7359V21.5044ZM141.06 30.8159C141.06 29.4549 139.949 28.3491 138.586 28.3491C137.223 28.3491 136.111 29.4549 136.111 30.8159V42.808C136.111 44.177 137.223 45.2812 138.586 45.2812C139.949 45.2812 141.06 44.177 141.06 42.808V30.8159ZM127.467 37.6223C127.467 36.2607 126.355 35.157 124.992 35.157C123.63 35.157 122.517 36.2607 122.517 37.6223V42.808C122.517 44.177 123.63 45.2812 124.992 45.2812C126.355 45.2812 127.467 44.177 127.467 42.808" fill="white"/>
</g>
<defs>
<clipPath id="clip0_231_111746">
<rect width="113.684" height="60" fill="white" transform="translate(68.158 19)"/>
</clipPath>
</defs>
</svg>
