<svg width="250" height="98" viewBox="0 0 250 98" fill="none" xmlns="http://www.w3.org/2000/svg">
<g clip-path="url(#clip0_231_111748)">
<path d="M61.0563 33.1509L58.6583 64.3639H48.8662L49.9511 50.5422H35.9054L34.8206 64.3639H25L27.4266 33.1509H34.6778C35.4772 33.1509 37.1044 33.2366 37.0759 35.1499L36.3622 44.0597H50.4078L51.2643 33.1509L61.0563 33.1509Z" fill="white"/>
<path d="M185.726 50.8568C190.094 52.8272 194.547 54.712 193.891 58.967C193.149 63.6218 186.326 64.5071 180.73 64.5071C180.302 64.5071 179.845 64.4786 179.388 64.4786C171.709 64.2501 167.855 63.6504 167.855 63.6504L168.169 58.5958C168.169 58.5958 173.479 59.5667 178.503 59.7381C181.358 59.8237 183.442 59.6524 183.499 58.6815C183.556 57.7962 182.129 57.3393 179.103 56.1399L176.448 55.0832C173.251 53.7411 168.026 51.8277 168.283 47.4585C168.54 43.1749 173.736 41.8327 176.791 41.4043C178.589 41.1473 180.473 41.0616 183.1 41.0902C188.866 41.1759 193.72 42.2039 193.72 42.2039L193.263 46.9159C193.263 46.9159 188.124 45.8021 182.957 45.8021C179.674 45.8307 178.561 46.2019 178.389 46.7445C178.075 47.744 179.902 48.458 182.3 49.4289L185.726 50.8568Z" fill="white"/>
<path d="M73.1037 33.1509C74.6453 33.1509 75.1878 33.8077 75.0736 35.1499C75.045 35.721 74.7881 39.1193 74.7881 39.1193H65.1959L65.6527 33.1509H73.1037ZM74.6168 41.6609L72.8468 64.3639H63.2546L64.9961 41.6609H74.6168Z" fill="white"/>
<path d="M156.15 49.4276C156.35 46.1721 153.866 46.2007 153.01 46.1721C150.498 46.0579 147.3 46.5148 147.3 46.5148L146.215 64.3059H137.28L138.679 42.374C138.679 42.374 145.759 41.5458 151.325 41.3459C151.982 41.3174 152.639 41.3174 153.238 41.3174C155.579 41.3174 157.263 41.4602 157.492 41.4887C160.718 41.8029 165.571 42.3169 165.143 49.1992L164.172 64.3345H155.208C155.208 64.3345 155.893 53.4542 156.15 49.4276Z" fill="white"/>
<path d="M224.751 54.8551C226.664 43.9176 216.986 41.7758 214.702 41.4332C213.875 41.3189 212.961 41.2333 211.99 41.2333C201.799 41.1476 196.717 47.573 196.289 52.8846C195.889 57.7108 197.716 64.8501 212.676 64.8501C218.157 64.8501 221.697 64.0219 223.21 63.5936C223.381 62.594 223.695 60.5094 223.952 58.9102C223.21 59.053 218.728 60.0239 213.846 60.0239H213.389C206.595 59.7669 205.225 56.4543 205.225 54.9122V54.8265L224.751 54.8551ZM205.596 50.5144C206.024 48.1156 207.88 45.6882 211.791 45.6596C217.5 45.7167 217.129 50.5144 217.129 50.5144H205.596Z" fill="white"/>
<path d="M134.368 54.8551C136.309 43.9176 126.603 41.7758 124.319 41.4332C123.491 41.3189 122.578 41.2333 121.607 41.2333C111.415 41.1476 106.305 47.573 105.877 52.8846C105.477 57.7108 107.304 64.8501 122.263 64.8501C127.773 64.8501 131.285 64.0219 132.798 63.5936C132.969 62.594 133.283 60.5094 133.54 58.9102C132.798 59.053 128.316 60.0239 123.434 60.0239H122.977C116.183 59.7669 114.812 56.4543 114.812 54.9122V54.8265L134.368 54.8551ZM115.184 50.5144C115.612 48.1156 117.467 45.6882 121.378 45.6596C127.088 45.7167 126.717 50.5144 126.717 50.5144H115.184Z" fill="white"/>
<path d="M95.2 50.8558L91.8028 49.4565C89.4047 48.5141 87.5777 47.8002 87.8917 46.8007C88.063 46.2296 89.1764 45.8583 92.4594 45.8583C97.6266 45.8583 102.765 46.972 102.765 46.972L103.222 42.2601C103.222 42.2601 98.3689 41.2035 92.6021 41.1464C89.9757 41.1178 88.0915 41.2035 86.293 41.4605C83.2098 41.8889 78.0426 43.231 77.7857 47.5146C77.5287 51.9124 82.753 53.8258 85.9504 55.1394L88.6054 56.196C91.6315 57.3954 93.0589 57.8523 93.0018 58.7376C92.9447 59.7371 90.8607 59.8799 88.0059 59.7942C82.9814 59.6229 77.6715 58.6519 77.6715 58.6519L77.3574 63.7066C77.3574 63.7066 81.2114 64.3348 88.8909 64.5347H90.2326C95.8281 64.5347 102.651 63.6494 103.393 58.9946C104.078 54.711 99.5679 52.8263 95.2 50.8558Z" fill="white"/>
</g>
<defs>
<clipPath id="clip0_231_111748">
<rect width="200" height="31.6985" fill="white" transform="translate(25 33.1509)"/>
</clipPath>
</defs>
</svg>
