<svg width="164" height="36" viewBox="0 0 164 36" fill="none" xmlns="http://www.w3.org/2000/svg">
<g clip-path="url(#clip0_360_4339)">
<path d="M42.2646 13.9909V12.15H51.403V13.9909H47.8537V24.2182H45.8139V13.9909H42.2646Z" fill="#26428B"/>
<path d="M52.8716 27.1227V22.4182H53.6467C53.8915 22.2136 54.1363 21.8863 54.381 21.5182C54.585 21.1091 54.789 20.5773 54.9522 19.9227C55.1154 19.2273 55.197 18.3682 55.2785 17.2636L55.5641 12.1909H62.8258V22.4591H64.0905V27.1227H62.0915V24.2182H54.789V27.1227H52.8716ZM56.0537 22.4182H60.8676V13.9909H57.3999L57.2368 17.2636C57.196 18.0818 57.1144 18.8182 56.992 19.4727C56.8696 20.1273 56.7472 20.7 56.584 21.1909C56.4208 21.6409 56.2169 22.0909 56.0537 22.4182Z" fill="#26428B"/>
<path d="M79.9603 12.15V24.1773H77.9205V13.95H72.9026V24.1773H70.8628V12.15H79.9603Z" fill="#26428B"/>
<path d="M82.8975 24.2182V12.15H90.3223V13.9909H84.9781V17.2636H89.9552V19.1045H84.9781V22.3773H90.4039V24.2182H82.8975Z" fill="#26428B"/>
<path d="M92.4438 13.9909V12.15H101.582V13.9909H98.0329V24.2182H95.9931V13.9909H92.4438Z" fill="#26428B"/>
<path d="M103.785 24.2182V12.15H111.21V13.9909H105.866V17.2636H110.843V19.1045H105.866V22.3773H111.292V24.2182H103.785Z" fill="#26428B"/>
<path d="M113.78 24.2182V12.15H118.064C118.961 12.15 119.696 12.3136 120.267 12.6818C120.879 13.0091 121.328 13.5 121.613 14.1136C121.939 14.7273 122.062 15.3818 122.062 16.1591C122.062 16.9364 121.899 17.6318 121.613 18.2045C121.287 18.8182 120.838 19.2682 120.226 19.6364C119.614 19.9636 118.88 20.1682 117.982 20.1682H115.127V18.3682H117.697C118.227 18.3682 118.635 18.2864 118.961 18.0818C119.288 17.8773 119.533 17.6318 119.696 17.3045C119.859 16.9773 119.94 16.6091 119.94 16.1591C119.94 15.75 119.859 15.3409 119.696 15.0136C119.533 14.6864 119.288 14.4409 118.961 14.2364C118.635 14.0318 118.227 13.95 117.697 13.95H115.861V24.1773H113.78V24.2182Z" fill="#26428B"/>
<path d="M124.387 24.2182V12.15H131.73V13.9909H126.468V16.8136H128.671C129.528 16.8136 130.303 16.9773 130.915 17.2636C131.527 17.55 132.016 18 132.342 18.5318C132.669 19.0636 132.832 19.7182 132.832 20.4545C132.832 21.1909 132.669 21.8454 132.342 22.4182C132.016 22.9909 131.527 23.4 130.915 23.7273C130.303 24.0545 129.528 24.2182 128.671 24.2182H124.387ZM126.468 22.4182H128.671C129.12 22.4182 129.528 22.3364 129.854 22.1318C130.18 21.9273 130.425 21.7227 130.588 21.3954C130.751 21.1091 130.833 20.7818 130.833 20.4136C130.833 19.9227 130.629 19.4727 130.262 19.1045C129.895 18.7364 129.364 18.5727 128.671 18.5727H126.468V22.4182Z" fill="#26428B"/>
<path d="M136.177 24.3818V22.5409H136.83C137.115 22.5409 137.36 22.5 137.564 22.4182C137.768 22.3364 137.89 22.2136 138.013 22.05C138.135 21.8864 138.217 21.6818 138.298 21.4773L138.461 21.0682L134.382 12.2318H136.544L139.4 18.6545L141.848 12.2318H143.969L140.012 22.05C139.849 22.4591 139.604 22.8682 139.4 23.2364C139.155 23.6045 138.869 23.8909 138.461 24.0954C138.094 24.3 137.605 24.4227 136.993 24.4227H136.177V24.3818Z" fill="#26428B"/>
<path d="M145.927 24.2182V12.15H150.211C151.108 12.15 151.843 12.3136 152.414 12.6818C153.026 13.0091 153.475 13.5 153.76 14.1136C154.086 14.7273 154.209 15.3818 154.209 16.1591C154.209 16.9364 154.046 17.6318 153.76 18.2045C153.434 18.8182 152.985 19.2682 152.373 19.6364C151.761 19.9636 151.027 20.1682 150.129 20.1682H147.274V18.3682H149.844C150.374 18.3682 150.782 18.2864 151.108 18.0818C151.435 17.8773 151.679 17.6318 151.843 17.3045C152.006 16.9773 152.087 16.6091 152.087 16.1591C152.087 15.75 152.006 15.3409 151.843 15.0136C151.679 14.6864 151.435 14.4409 151.108 14.2364C150.782 14.0318 150.374 13.95 149.844 13.95H147.926V24.1773H145.927V24.2182Z" fill="#26428B"/>
<path d="M163.837 12.15V13.9909H158.574V24.2182H156.494V12.15H163.837Z" fill="#26428B"/>
<path d="M16.4 35.7545C7.38408 35.7545 0 27.8182 0 18C0 8.18182 7.38408 0.245453 16.4 0.245453C25.4567 0.245453 32.8408 8.18182 32.8408 18C32.8408 27.7773 25.4567 35.7545 16.4 35.7545ZM16.4 2.04545C8.36318 2.04545 1.79502 9.20455 1.79502 18C1.79502 26.7955 8.36318 33.9545 16.4 33.9545C24.4776 33.9545 31.0458 26.7955 31.0458 18C31.0458 9.20455 24.4776 2.04545 16.4 2.04545Z" fill="#FBB049"/>
<path d="M16.4 28.35L10.9333 24.6682V14.3591L16.4 11.2909L21.9074 14.3591V21.0273L16.4 24.7091L14.0338 23.1136V16.4864L16.4407 15.0136L17.991 15.8727L15.6656 17.3454V22.2545L16.4 22.7454L20.3164 20.1682V15.3L16.4 13.1727L12.5243 15.3V23.8091L16.4 26.3864L23.4169 21.7227V13.2136L16.4 9.4909L9.42383 13.2136V23.7273L7.79199 22.6227V12.2727L16.4 7.64999L25.0487 12.2727V22.5818L16.4 28.35Z" fill="#FBB049"/>
</g>
<defs>
<clipPath id="clip0_360_4339">
<rect width="164" height="36" fill="white"/>
</clipPath>
</defs>
</svg>
